<svg width="24" height="24" viewBox="0 0 2139 2072" fill="none" xmlns="http://www.w3.org/2000/svg">
<rect x="35" y="1" width="2070" height="2070" rx="200" fill="#1A3A32"/>
<path d="M1069.16 233.879L1269.63 701.637L1069.16 601.403L868.694 701.637L1069.16 233.879Z" fill="white"/>
<path d="M1904.44 1069.16L1436.69 868.694L1536.92 1069.16L1436.69 1269.63L1904.44 1069.16Z" fill="white"/>
<path d="M1069.16 1904.44L868.694 1436.69L1069.16 1536.92L1269.63 1436.69L1069.16 1904.44Z" fill="white"/>
<path d="M233.879 1069.16L701.637 1269.63L601.403 1069.16L701.637 868.694L233.879 1069.16Z" fill="white"/>
<path d="M1069.16 1303.04C1198.33 1303.04 1303.04 1198.33 1303.04 1069.16C1303.04 939.993 1198.33 835.282 1069.16 835.282C939.993 835.282 835.282 939.993 835.282 1069.16C835.282 1198.33 939.993 1303.04 1069.16 1303.04Z" fill="#1A3A32" stroke="white" stroke-width="100.234"/>
<path d="M1069.16 1149.35C1113.45 1149.35 1149.35 1113.45 1149.35 1069.16C1149.35 1024.87 1113.45 988.973 1069.16 988.973C1024.88 988.973 988.974 1024.87 988.974 1069.16C988.974 1113.45 1024.88 1149.35 1069.16 1149.35Z" fill="white"/>
</svg>
